<?xml version="1.0" standalone="no"?>
<!DOCTYPE svg PUBLIC "-//W3C//DTD SVG 20010904//EN"
 "http://www.w3.org/TR/2001/REC-SVG-20010904/DTD/svg10.dtd">
<svg version="1.0" xmlns="http://www.w3.org/2000/svg"
 width="200.000000pt" height="200.000000pt" viewBox="0 0 200.000000 200.000000"
 preserveAspectRatio="xMidYMid meet">

<g transform="translate(0.000000,200.000000) scale(0.100000,-0.100000)"
fill="#000000" stroke="none">
<path d="M872 1990 c-158 -22 -341 -96 -458 -183 -106 -81 -226 -210 -208
-226 5 -5 115 -95 244 -202 129 -106 366 -301 525 -434 160 -132 359 -297 443
-365 l153 -125 -63 -58 c-69 -63 -204 -135 -303 -162 -96 -26 -256 -31 -355
-11 -232 47 -378 153 -546 394 -5 7 -154 -123 -154 -134 0 -35 164 -215 264
-290 84 -64 225 -130 342 -160 85 -23 119 -27 244 -27 124 0 160 4 245 26 190
50 378 166 507 314 73 83 104 132 92 148 -8 12 -247 210 -1129 939 -99 82
-188 156 -198 166 -17 16 -15 19 46 59 245 159 555 174 810 38 95 -50 222
-165 281 -253 l42 -63 77 65 c42 36 77 69 77 73 0 16 -89 130 -145 185 -132
130 -286 217 -460 261 -109 28 -274 39 -373 25z"/>
<path d="M83 1393 c-14 -32 -36 -101 -50 -153 -33 -124 -37 -323 -9 -445 19
-85 72 -231 86 -240 6 -4 100 67 158 120 1 1 -9 42 -23 91 -27 92 -48 324 -29
324 5 0 137 -106 294 -236 157 -130 331 -274 387 -320 l102 -85 116 97 c64 54
112 101 108 105 -4 4 -41 35 -81 68 l-74 61 -30 -25 c-16 -14 -34 -25 -40 -25
-5 0 -100 76 -211 168 -481 400 -666 552 -672 552 -3 0 -18 -26 -32 -57z"/>
<path d="M1615 1234 c-143 -118 -264 -219 -268 -223 -11 -11 149 -144 163
-136 6 3 67 53 136 111 69 57 130 104 135 104 5 0 9 -38 9 -85 0 -90 -21 -211
-48 -278 l-16 -41 45 -39 c24 -22 61 -53 82 -69 l37 -30 26 55 c13 31 36 100
51 154 22 84 26 119 26 243 0 123 -4 159 -26 240 -26 100 -70 210 -84 210 -4
0 -125 -97 -268 -216z"/>
</g>
</svg>
