<svg width="44" height="38" viewBox="0 0 44 38" fill="currentColor" xmlns="http://www.w3.org/2000/svg">
  <g filter="url(#filter0_dd_203_451)" transform="translate(-3 -2)">
    <rect x="3" y="2" width="44" height="38" rx="8" fill="currentColor"/>
    <path d="M33.0782 14.4641C33.0782 14.4641 33.0782 14.4719 33.0782 14.4758L28.5313 29.4711C28.4625 29.7147 28.3208 29.9313 28.1253 30.0921C27.9298 30.2528 27.6898 30.3499 27.4376 30.3703C27.4016 30.3734 27.3657 30.375 27.3297 30.375C27.0933 30.3757 26.8616 30.3088 26.662 30.1822C26.4624 30.0555 26.3032 29.8744 26.2032 29.6602L23.3594 23.8242C23.331 23.7657 23.3215 23.6998 23.3323 23.6357C23.343 23.5716 23.3736 23.5124 23.4196 23.4664L27.9446 18.9414C28.0569 18.8233 28.1185 18.6659 28.1164 18.5029C28.1143 18.34 28.0487 18.1842 27.9334 18.069C27.8182 17.9537 27.6625 17.8881 27.4995 17.886C27.3365 17.8839 27.1792 17.9456 27.061 18.0578L22.5337 22.5828C22.4877 22.6288 22.4285 22.6594 22.3644 22.6701C22.3002 22.6809 22.2343 22.6714 22.1758 22.643L16.3344 19.8C16.106 19.6904 15.9163 19.514 15.7904 19.2942C15.6645 19.0743 15.6084 18.8214 15.6295 18.5689C15.6506 18.3164 15.7479 18.0763 15.9085 17.8804C16.0691 17.6845 16.2855 17.542 16.529 17.4719L31.5243 12.925H31.536C31.7495 12.865 31.9751 12.8629 32.1897 12.9189C32.4043 12.9749 32.6001 13.087 32.7571 13.2436C32.9141 13.4003 33.0265 13.5959 33.0829 13.8104C33.1394 14.0248 33.1377 14.2504 33.0782 14.4641Z" fill="white"/>
  </g>
  <defs>
    <filter id="filter0_dd_203_451" x="0" y="0" width="50" height="44" filterUnits="userSpaceOnUse" color-interpolation-filters="sRGB">
      <feFlood flood-opacity="0" result="BackgroundImageFix"/>
      <feColorMatrix in="SourceAlpha" type="matrix" values="0 0 0 0 0 0 0 0 0 0 0 0 0 0 0 0 0 0 127 0" result="hardAlpha"/>
      <feOffset dy="1"/>
      <feGaussianBlur stdDeviation="1"/>
      <feComposite in2="hardAlpha" operator="out"/>
      <feColorMatrix type="matrix" values="0 0 0 0 0 0 0 0 0 0 0 0 0 0 0 0 0 0 0.06 0"/>
      <feBlend mode="normal" in2="BackgroundImageFix" result="effect1_dropShadow_203_451"/>
      <feColorMatrix in="SourceAlpha" type="matrix" values="0 0 0 0 0 0 0 0 0 0 0 0 0 0 0 0 0 0 127 0" result="hardAlpha"/>
      <feOffset dy="1"/>
      <feGaussianBlur stdDeviation="1.5"/>
      <feComposite in2="hardAlpha" operator="out"/>
      <feColorMatrix type="matrix" values="0 0 0 0 0 0 0 0 0 0 0 0 0 0 0 0 0 0 0.1 0"/>
      <feBlend mode="normal" in2="effect1_dropShadow_203_451" result="effect2_dropShadow_203_451"/>
      <feBlend mode="normal" in="SourceGraphic" in2="effect2_dropShadow_203_451" result="shape"/>
    </filter>
  </defs>
</svg>
