<svg width="20" height="20" viewBox="0 0 20 20" fill="none" xmlns="http://www.w3.org/2000/svg">
<path fill-rule="evenodd" clip-rule="evenodd" d="M4.16675 5C4.16675 3.82149 4.16675 3.23223 4.53286 2.86612C4.89898 2.5 5.48824 2.5 6.66675 2.5H10.4825C12.5172 2.5 14.1667 4.17893 14.1667 6.25C14.1667 8.32107 12.5172 10 10.4825 10H4.16675V5Z" stroke="#141B34" stroke-width="1.5" stroke-linecap="round" stroke-linejoin="round"/>
<path d="M10.3572 10H11.389C13.3833 10 15.0001 11.6789 15.0001 13.75C15.0001 15.8211 13.3833 17.5 11.389 17.5H6.66675C5.48824 17.5 4.89898 17.5 4.53286 17.1339C4.16675 16.7677 4.16675 16.1785 4.16675 15V10" stroke="#141B34" stroke-width="1.5" stroke-linecap="round" stroke-linejoin="round"/>
</svg>
