<svg width="20" height="20" viewBox="0 0 20 20" fill="none" xmlns="http://www.w3.org/2000/svg">
<path d="M3.75 16.9445V15.9028H5.48611V15.382H4.44444V14.3403H5.48611V13.8195H3.75V12.7778H5.83333C6.03009 12.7778 6.19514 12.8445 6.32847 12.9778C6.46181 13.1112 6.52824 13.276 6.52778 13.4723V14.1667C6.52778 14.3635 6.46111 14.5285 6.32778 14.6619C6.19444 14.7952 6.02963 14.8616 5.83333 14.8612C6.03009 14.8612 6.19514 14.9278 6.32847 15.0612C6.46181 15.1945 6.52824 15.3593 6.52778 15.5556V16.25C6.52778 16.4468 6.46111 16.6119 6.32778 16.7452C6.19444 16.8785 6.02963 16.945 5.83333 16.9445H3.75ZM3.75 12.0834V10.1737C3.75 9.9769 3.81667 9.81208 3.95 9.67921C4.08333 9.54634 4.24815 9.47968 4.44444 9.47921H5.48611V8.95838H3.75V7.91671H5.83333C6.03009 7.91671 6.19514 7.98338 6.32847 8.11671C6.46181 8.25005 6.52824 8.41486 6.52778 8.61116V9.82644C6.52778 10.0232 6.46111 10.1882 6.32778 10.3216C6.19444 10.4549 6.02963 10.5213 5.83333 10.5209H4.79167V11.0417H6.52778V12.0834H3.75ZM4.79167 7.22227V4.09727H3.75V3.0556H5.83333V7.22227H4.79167ZM7.91667 14.8612V13.4723H16.25V14.8612H7.91667ZM7.91667 10.6945V9.3056H16.25V10.6945H7.91667ZM7.91667 6.52783V5.13894H16.25V6.52783H7.91667Z" fill="black"/>
</svg>
