<svg width="20" height="20" viewBox="0 0 20 20" fill="none" xmlns="http://www.w3.org/2000/svg">
<g clip-path="url(#clip0_1_100289)">
<path d="M12.25 8.5C12.695 8.5 13.13 8.36804 13.5 8.12081C13.87 7.87357 14.1584 7.52217 14.3287 7.11104C14.499 6.69991 14.5436 6.24751 14.4568 5.81105C14.37 5.37459 14.1557 4.97368 13.841 4.65901C13.5263 4.34434 13.1254 4.13005 12.689 4.04323C12.2525 3.95642 11.8001 4.00097 11.389 4.17127C10.9778 4.34157 10.6264 4.62996 10.3792 4.99997C10.132 5.36998 10 5.80499 10 6.25C10 6.84674 10.2371 7.41903 10.659 7.84099C11.081 8.26295 11.6533 8.5 12.25 8.5ZM12.25 5.5C12.3983 5.5 12.5433 5.54399 12.6667 5.6264C12.79 5.70881 12.8861 5.82594 12.9429 5.96299C12.9997 6.10003 13.0145 6.25083 12.9856 6.39632C12.9567 6.5418 12.8852 6.67544 12.7803 6.78033C12.6754 6.88522 12.5418 6.95665 12.3963 6.98559C12.2508 7.01453 12.1 6.99968 11.963 6.94291C11.8259 6.88615 11.7088 6.79002 11.6264 6.66668C11.544 6.54334 11.5 6.39834 11.5 6.25C11.5 6.05109 11.579 5.86032 11.7197 5.71967C11.8603 5.57902 12.0511 5.5 12.25 5.5Z" fill="black"/>
<path d="M17.5 1H2.5C2.10218 1 1.72064 1.15804 1.43934 1.43934C1.15804 1.72064 1 2.10218 1 2.5V17.5C1 17.8978 1.15804 18.2794 1.43934 18.5607C1.72064 18.842 2.10218 19 2.5 19H17.5C17.8978 19 18.2794 18.842 18.5607 18.5607C18.842 18.2794 19 17.8978 19 17.5V2.5C19 2.10218 18.842 1.72064 18.5607 1.43934C18.2794 1.15804 17.8978 1 17.5 1ZM17.5 17.5H2.5V13L6.25 9.25L10.4425 13.4425C10.7235 13.7219 11.1037 13.8787 11.5 13.8787C11.8963 13.8787 12.2765 13.7219 12.5575 13.4425L13.75 12.25L17.5 16V17.5ZM17.5 13.8775L14.8075 11.185C14.5265 10.9056 14.1463 10.7488 13.75 10.7488C13.3537 10.7488 12.9735 10.9056 12.6925 11.185L11.5 12.3775L7.3075 8.185C7.02646 7.90562 6.64628 7.74881 6.25 7.74881C5.85372 7.74881 5.47354 7.90562 5.1925 8.185L2.5 10.8775V2.5H17.5V13.8775Z" fill="black"/>
</g>
<defs>
<clipPath id="clip0_1_100289">
<rect width="20" height="20" fill="white"/>
</clipPath>
</defs>
</svg>
