<svg width="20" height="20" viewBox="0 0 20 20" fill="none" xmlns="http://www.w3.org/2000/svg">
<path d="M16.0938 3.33331H12.3438C11.5674 3.33331 10.9375 3.97319 10.9375 4.76188V8.57141C10.9375 9.3601 11.5674 9.99998 12.3438 9.99998H14.6875V11.9047C14.6875 12.9553 13.8467 13.8095 12.8125 13.8095H12.5781C12.1885 13.8095 11.875 14.128 11.875 14.5238V15.9524C11.875 16.3482 12.1885 16.6666 12.5781 16.6666H12.8125C15.4023 16.6666 17.5 14.5357 17.5 11.9047V4.76188C17.5 3.97319 16.8701 3.33331 16.0938 3.33331ZM7.65625 3.33331H3.90625C3.12988 3.33331 2.5 3.97319 2.5 4.76188V8.57141C2.5 9.3601 3.12988 9.99998 3.90625 9.99998H6.25V11.9047C6.25 12.9553 5.40918 13.8095 4.375 13.8095H4.14062C3.75098 13.8095 3.4375 14.128 3.4375 14.5238V15.9524C3.4375 16.3482 3.75098 16.6666 4.14062 16.6666H4.375C6.96484 16.6666 9.0625 14.5357 9.0625 11.9047V4.76188C9.0625 3.97319 8.43262 3.33331 7.65625 3.33331Z" fill="black"/>
</svg>
