<svg width="20" height="20" viewBox="0 0 20 20" fill="none" xmlns="http://www.w3.org/2000/svg">
<path d="M16.3796 9.55781C16.4378 9.61586 16.4839 9.68479 16.5153 9.76066C16.5468 9.83653 16.563 9.91786 16.563 10C16.563 10.0821 16.5468 10.1635 16.5153 10.2393C16.4839 10.3152 16.4378 10.3841 16.3796 10.4422L9.96949 16.8484C9.14888 17.669 8.03592 18.1299 6.87547 18.1298C5.71501 18.1297 4.60212 17.6687 3.7816 16.848C2.96109 16.0274 2.50017 14.9145 2.50024 13.754C2.50032 12.5936 2.96138 11.4807 3.78199 10.6602L11.5367 2.7914C12.1225 2.20492 12.9174 1.8752 13.7464 1.87476C14.5753 1.87432 15.3705 2.2032 15.957 2.78906C16.5435 3.37492 16.8732 4.16976 16.8736 4.99873C16.8741 5.8277 16.5452 6.62289 15.9593 7.20937L8.20309 15.0781C7.85085 15.4304 7.37311 15.6283 6.87496 15.6283C6.37682 15.6283 5.89908 15.4304 5.54684 15.0781C5.1946 14.7259 4.99671 14.2481 4.99671 13.75C4.99671 13.2519 5.1946 12.7741 5.54684 12.4219L12.0546 5.81094C12.1117 5.75012 12.1803 5.70133 12.2564 5.66742C12.3326 5.63351 12.4147 5.61518 12.4981 5.6135C12.5814 5.61183 12.6642 5.62684 12.7417 5.65765C12.8191 5.68847 12.8896 5.73446 12.949 5.79293C13.0084 5.8514 13.0556 5.92117 13.0876 5.99812C13.1196 6.07507 13.136 6.15765 13.1356 6.24101C13.1353 6.32437 13.1183 6.40681 13.0856 6.48349C13.0529 6.56016 13.0052 6.62953 12.9453 6.6875L6.43668 13.3055C6.37841 13.3633 6.33209 13.432 6.30038 13.5077C6.26866 13.5834 6.25217 13.6646 6.25184 13.7467C6.25152 13.8288 6.26736 13.9102 6.29847 13.9861C6.32958 14.0621 6.37535 14.1312 6.43317 14.1895C6.49098 14.2477 6.5597 14.294 6.63541 14.3258C6.71113 14.3575 6.79234 14.374 6.87443 14.3743C6.95651 14.3746 7.03786 14.3588 7.11382 14.3277C7.18978 14.2965 7.25888 14.2508 7.31715 14.193L15.0726 6.32812C15.4249 5.97661 15.623 5.49956 15.6235 5.00193C15.6241 4.5043 15.4269 4.02685 15.0754 3.67461C14.7238 3.32237 14.2468 3.12419 13.7492 3.12368C13.2515 3.12317 12.7741 3.32036 12.4218 3.67187L4.66871 11.5375C4.37826 11.8275 4.14778 12.1718 3.99041 12.5509C3.83305 12.93 3.75188 13.3363 3.75156 13.7467C3.75123 14.1572 3.83175 14.5636 3.98851 14.9429C4.14527 15.3223 4.37521 15.667 4.6652 15.9574C4.95518 16.2479 5.29954 16.4784 5.6786 16.6357C6.05766 16.7931 6.464 16.8742 6.87443 16.8746C7.28486 16.8749 7.69133 16.7944 8.07064 16.6376C8.44995 16.4809 8.79467 16.2509 9.08512 15.9609L15.4961 9.55469C15.6137 9.43798 15.7728 9.37275 15.9385 9.37333C16.1042 9.37392 16.2629 9.44027 16.3796 9.55781Z" fill="#343330"/>
</svg>
